<svg xmlns="http://www.w3.org/2000/svg" viewBox="0 0 500 500" 
preserveAspectRatio="xMinYMin meet" class="svg-content" overflow="visible"><style>.first{opacity:0;animation: showMe 1s forwards;animation-delay:0.25s;}.second{opacity:0;animation:showMe 1s forwards;animation-delay:0.5s;}.third{opacity:0;animation:showMe 1s forwards;animation-delay:1s;}.fourth{opacity:0;animation:showMe 1s forwards;animation-delay:1s;}@keyframes showMe{to{opacity: 1;}}.st1{fill:#3499cc}.st3{fill:#3d4644}.st4{font-family:&apos;Gilroy-Bold&apos;}.st5{font-size:24px}.st6{fill:none;stroke:#707070;stroke-width:2}</style><g id="Group_13249_1_" transform="translate(-690.511 -5599.856)"><path id="Path_18236_1_" class="fourth" d="M1249.8 6164.7h185.6l233.3-463.2h-185.6l-233.3 463.2z" fill="#2e8ab9"/><path id="Path_18237_1_" class="st1 third" d="M1218.2 6164.7h171.9l-108.8-310.3h-171.9l108.8 310.3z"/><path id="Artwork_5_1_" class="st1 first" d="M1109.5 6164.7H923.8l-233.3-463.2h185.6l233.4 463.2z"/><path id="Path_18238_1_" class="second" d="M1141 6164.7H969.2l108.8-310.3h171.9L1141 6164.7z" fill="#1da3d9"/><text transform="translate(809.736 5620.255)" class="st3 st4 st5 first">Gain</text><text transform="translate(863.375 5620.255)" class="st3 st4 st5"></text><text transform="translate(869.375 5620.255)" class="st3 st4 st5 first">instant</text><text transform="translate(946.63 5620.255)" class="st3 st4 st5"></text><text transform="translate(809.736 5648.255)" class="st3 st4 st5 first">capacity to sell more</text><text transform="translate(1183.545 5732.864)" class="st3 st4 st5 third">Mitigate supply chain</text><text transform="translate(1183.545 5760.864)" class="st3 st4 st5 third">costs &amp; risks</text><text transform="translate(1104.057 6213.165)" class="st3 st4 st5 second">Gain</text><text transform="translate(1157.696 6213.165)" class="st3 st4 st5"></text><text transform="translate(1163.696 6213.165)" class="st3 st4 st5 second">transparency</text><text transform="translate(1314.655 6213.165)" class="st3 st4 st5"></text><text transform="translate(1104.057 6241.165)" class="st3 st4 st5 second">into your supply chain</text><text transform="translate(1537.713 6123.36)" class="st3 st4 st5 fourth">Dramatically improve</text><text transform="translate(1537.713 6151.36)" class="st3 st4 st5 fourth">supply chain agility</text><path id="Path_18239_1_" class="st6 third" d="M1140.6 5854.3l44.6-82.5h133.3"/><path id="Path_18240_1_" class="st6 first" d="M787.8 5702.4l18.8-38.6H1038"/><path id="Path_18241_1_" class="st6 second" d="M1046.4 6163.7l49.3 89.8h253.8"/><path id="Path_18242_1_" class="st6 fourth" d="M1480.1 6073.9l49.3 89.8h227.1"/></g></svg>
